<?xml version="1.0" encoding="UTF-8" ?>
<svg version="1.1" width="56" height="56" xmlns="http://www.w3.org/2000/svg" shape-rendering="crispEdges">
<rect x="23" y="15" width="9" height="2" fill="#000000" />
<rect x="20" y="17" width="3" height="3" fill="#000000" />
<rect x="23" y="17" width="9" height="5" fill="#37946E" />
<rect x="32" y="17" width="3" height="3" fill="#000000" />
<rect x="18" y="20" width="2" height="4" fill="#000000" />
<rect x="20" y="20" width="3" height="18" fill="#37946E" />
<rect x="32" y="20" width="3" height="11" fill="#37946E" />
<rect x="35" y="20" width="2" height="4" fill="#000000" />
<rect x="23" y="22" width="2" height="5" fill="#000000" />
<rect x="25" y="22" width="5" height="16" fill="#37946E" />
<rect x="30" y="22" width="2" height="5" fill="#000000" />
<rect x="16" y="24" width="2" height="7" fill="#000000" />
<rect x="18" y="24" width="2" height="14" fill="#37946E" />
<rect x="35" y="24" width="2" height="5" fill="#37946E" />
<rect x="37" y="24" width="2" height="7" fill="#000000" />
<rect x="23" y="27" width="2" height="11" fill="#37946E" />
<rect x="30" y="27" width="2" height="2" fill="#37946E" />
<rect x="30" y="29" width="2" height="5" fill="#CECB00" />
<rect x="35" y="29" width="2" height="7" fill="#CECB00" />
<rect x="13" y="31" width="3" height="12" fill="#000000" />
<rect x="16" y="31" width="2" height="7" fill="#37946E" />
<rect x="32" y="31" width="3" height="5" fill="#CECB00" />
<rect x="37" y="31" width="7" height="3" fill="#CECB00" />
<rect x="30" y="34" width="2" height="4" fill="#37946E" />
<rect x="37" y="34" width="5" height="2" fill="#CECB00" />
<rect x="32" y="36" width="3" height="7" fill="#000000" />
<rect x="16" y="38" width="2" height="3" fill="#749788" opacity="0.886275" />
<rect x="18" y="38" width="2" height="3" fill="#8FC3AE" />
<rect x="20" y="38" width="3" height="3" fill="#A6CFBE" />
<rect x="23" y="38" width="2" height="3" fill="#8FC3AE" />
<rect x="25" y="38" width="3" height="3" fill="#A6CFBE" />
<rect x="28" y="38" width="2" height="3" fill="#8FC3AE" />
<rect x="30" y="38" width="2" height="3" fill="#749788" opacity="0.886275" />
<rect x="16" y="41" width="2" height="2" fill="#FFFFFF" />
<rect x="18" y="41" width="2" height="2" fill="#BCDBCE" opacity="0.666667" />
<rect x="20" y="41" width="3" height="2" fill="#FFFFFF" />
<rect x="23" y="41" width="2" height="2" fill="#BCDBCE" opacity="0.666667" />
<rect x="25" y="41" width="7" height="2" fill="#FFFFFF" />
<rect x="15" y="43" width="18" height="1" fill="#000000" />
</svg>